<svg id="home-Bold" xmlns="http://www.w3.org/2000/svg" width="68" height="68" viewBox="0 0 68 68">
  <rect id="Path" width="68" height="68" fill="rgba(255,255,255,0)"/>
  <path id="home-Bold_1_" d="M256.383,1762.5l-14.167-11.387a14.267,14.267,0,0,0-17.765,0L210.284,1762.5A14.09,14.09,0,0,0,205,1773.525V1790.5a14.174,14.174,0,0,0,14.167,14.149h8.5V1790.5a5.667,5.667,0,0,1,11.333,0v14.153h8.5a14.174,14.174,0,0,0,14.167-14.15v-16.977A14.09,14.09,0,0,0,256.383,1762.5Zm-.383,28a8.5,8.5,0,0,1-8.5,8.483h-2.833V1790.5a11.333,11.333,0,0,0-22.667,0v8.486h-2.833a8.5,8.5,0,0,1-8.5-8.483v-16.977a8.447,8.447,0,0,1,3.168-6.61L228,1755.528a8.568,8.568,0,0,1,10.665,0l14.167,11.387a8.441,8.441,0,0,1,3.171,6.61V1790.5Z" transform="translate(-199.333 -1742.319)" fill="#fff"/>
</svg>
